# xmcd CD database file
#
# Track frame offsets:
#	150
#	18897
#	37990
#	56687
#
# Disc length: 1008 seconds
#
# Revision: 0
# Processed by: cddbd v1.5PL3 Copyright (c) Steve Scherf et al.
# Submitted via: CDex 1.51
#
DISCID=2603ee04
DTITLE=Kids Alive - 雨
DYEAR=2001
DGENRE=JPop
TTITLE0=雨
TTITLE1=LOVE CONDITION
TTITLE2=雨 (TV MIX)
TTITLE3=LOVE CONDITION (TV MIX)
EXTD=YEAR: 2001
EXTT0=
EXTT1=
EXTT2=
EXTT3=
PLAYORDER=
